Coordinates
version=1
nRows=14
nColumns=28
inDegrees=yes

Units are S.I. units (second, meters, Newtons, ...)
Angles are in degrees.

endheader
time	pelvis_tilt	pelvis_list	pelvis_rotation	pelvis_tx	pelvis_ty	pelvis_tz	hip_flexion_r	hip_adduction_r	hip_rotation_r	knee_angle_r	ankle_angle_r	subtalar_angle_r	mtp_angle_r	hip_flexion_l	hip_adduction_l	hip_rotation_l	knee_angle_l	socket_flexion	socket_adduction	socket_rotation	socket_tx	socket_ty	socket_tz	foot_flex	lumbar_extension	lumbar_bending	lumbar_rotation
      0.62083333	      3.21173285	     -2.13647435	      1.55872659	     -0.00068912	      0.99044064	      0.29724445	     23.60979668	      2.92127255	    -11.12202153	    -11.76921870	      8.77397905	     -8.17190566	     15.21698526	    -24.81587256	     -2.05856759	     15.08110648	     -7.25214581	      0.00000000	      0.00000000	      0.00000000	      0.00000000	      0.00000000	      0.00000000	      8.48079159	    -16.28653904	      2.34487378	      2.14775490
      0.62500000	      3.13955952	     -2.09014042	      1.50740037	     -0.00071657	      0.99031036	      0.29734929	     23.72913532	      2.88908551	    -11.07418116	    -11.84445496	      8.77739194	     -8.16053636	     15.14371110	    -24.74089988	     -1.99245732	     15.07125271	     -7.25451640	      0.00000000	      0.00000000	      0.00000000	      0.00000000	      0.00000000	      0.00000000	      8.48913501	    -16.20621651	      2.26188047	      2.14988650
      0.62916667	      3.19312092	     -2.25077721	      1.48371830	      0.00543036	      0.98961285	      0.29745545	     23.76588118	      3.09355216	    -10.85083644	    -12.48515006	      8.12920558	     -8.55473049	     15.44960056	    -24.98001494	     -2.09390813	     14.95288697	     -7.61879917	      0.00000000	      0.00000000	      0.00000000	      0.00000000	      0.00000000	      0.00000000	      8.38854640	    -16.22435774	      2.58441183	      2.22171817
      0.63333333	      3.24402189	     -2.38335444	      1.44191181	      0.01157791	      0.98893063	      0.29766523	     23.84114423	      3.26825996	    -10.67099340	    -13.21018589	      7.52440916	     -8.81765941	     15.62806403	    -25.20674905	     -2.16623738	     14.82687401	     -7.99370944	      0.00000000	      0.00000000	      0.00000000	      0.00000000	      0.00000000	      0.00000000	      8.28256845	    -16.22160704	      2.84632499	      2.25879284
      0.63750000	      3.26966178	     -2.52214131	      1.45739500	      0.01764065	      0.98834424	      0.29777820	     23.89186496	      3.43416352	    -10.45877811	    -13.82988222	      7.17815896	     -8.89824397	     15.69070536	    -25.34023341	     -2.25770859	     14.85695300	     -8.47545256	      0.00000000	      0.00000000	      0.00000000	      0.00000000	      0.00000000	      0.00000000	      8.11033766	    -16.22084211	      3.13305443	      2.29438789
      0.64166667	      3.32422049	     -2.73947471	      1.14776822	      0.02389118	      0.98767212	      0.29842567	     23.84493180	      3.85400861	     -9.75640866	    -14.21144092	      4.57034514	    -11.15391364	     21.36681063	    -25.61296599	     -2.30141150	     14.34735540	     -8.83973600	      0.00000000	      0.00000000	      0.00000000	      0.00000000	      0.00000000	      0.00000000	      7.95789652	    -16.21847781	      3.40358100	      2.69318373
      0.64583333	      3.35801941	     -2.87962344	      1.18678744	      0.02998528	      0.98722458	      0.29850589	     23.87915193	      3.99842463	     -9.59606594	    -14.86872339	      4.31083857	    -11.14719899	     21.34272366	    -25.70828259	     -2.39238157	     14.35038403	     -9.38860036	      0.00000000	      0.00000000	      0.00000000	      0.00000000	      0.00000000	      0.00000000	      7.74141953	    -16.21496183	      3.69979622	      2.70749248
      0.65000000	      3.41413211	     -3.07361702	      0.99843606	      0.03626173	      0.98668506	      0.29887466	     24.02926964	      4.22308572	     -9.60932493	    -15.79253236	      3.64622252	    -11.27163708	     21.28430788	    -25.89738493	     -2.44099492	     13.99731505	     -9.88334056	      0.00000000	      0.00000000	      0.00000000	      0.00000000	      0.00000000	      0.00000000	      7.54279477	    -16.21632312	      4.01172273	      2.75486892
      0.65416667	      3.45340094	     -3.27093297	      0.86067342	      0.04251380	      0.98623608	      0.29922511	     24.10946951	      4.46250775	     -9.48131554	    -16.56108643	      3.11852059	    -11.43333668	     21.28491661	    -26.02146564	     -2.51182779	     13.71965868	    -10.44399767	      0.00000000	      0.00000000	      0.00000000	      0.00000000	      0.00000000	      0.00000000	      7.30332705	    -16.19905631	      4.32317540	      2.87648300
      0.65833333	      3.48059797	     -3.49006956	      0.70743839	      0.04876044	      0.98585270	      0.29960562	     24.16106547	      4.74986236	     -9.22801381	    -17.25678991	      2.58170275	    -11.71957245	     21.35337716	    -26.10811923	     -2.59401406	     13.39689901	    -11.04443351	      0.00000000	      0.00000000	      0.00000000	      0.00000000	      0.00000000	      0.00000000	      7.02895835	    -16.17743345	      4.65672725	      3.09663850
      0.66250000	      3.52603532	     -3.65595493	      0.71768183	      0.05482053	      0.98565827	      0.29973772	     24.15038291	      4.91572136	     -9.06903130	    -17.88072212	      2.38167861	    -11.75327340	     21.35743757	    -26.10806947	     -2.68377010	     13.34098765	    -11.77462253	      0.00000000	      0.00000000	      0.00000000	      0.00000000	      0.00000000	      0.00000000	      6.70417571	    -16.18696741	      4.95946491	      3.14225732
      0.66666667	      3.49059334	     -3.94143945	      0.27262384	      0.06112521	      0.98519036	      0.30061009	     24.27254805	      5.40914308	     -8.49727539	    -18.57382083	      1.49815020	    -12.71975066	     21.70444677	    -26.15686769	     -2.71669362	     12.61368126	    -12.39217639	      0.00000000	      0.00000000	      0.00000000	      0.00000000	      0.00000000	      0.00000000	      6.40410917	    -16.09930815	      5.26941636	      3.72178522
      0.67083333	      3.54710377	     -4.12551059	      0.20606453	      0.06727625	      0.98501208	      0.30083959	     24.30546503	      5.58442795	     -8.47025494	    -19.33949124	      1.19948143	    -12.80099000	     21.72863915	    -26.15695115	     -2.78685562	     12.36310680	    -13.15890251	      0.00000000	      0.00000000	      0.00000000	      0.00000000	      0.00000000	      0.00000000	      6.06122341	    -16.10958772	      5.58313719	      3.70446726
      0.67500000	      3.60064552	     -4.29479158	      0.22294108	      0.07332153	      0.98499035	      0.30097597	     24.25780671	      5.74121558	     -8.35153989	    -19.94174213	      1.05963311	    -12.80251891	     21.73821506	    -26.08279771	     -2.87785421	     12.25136408	    -14.01382270	      0.00000000	      0.00000000	      0.00000000	      0.00000000	      0.00000000	      0.00000000	      5.67053914	    -16.12603629	      5.88759314	      3.73764189
